<svg width="23" height="23" viewBox="0 0 23 23" fill="none" xmlns="http://www.w3.org/2000/svg">
<g clip-path="url(#clip0_1527_9880)">
<path d="M0.878906 0H22.9589V22.1657H0.878906V0Z" fill="#2E234B"/>
<path d="M16.7747 14.8762C16.1013 15.7042 15.2323 16.3498 14.2467 16.7542C13.2611 17.1585 12.1903 17.3088 11.132 17.1913C10.1374 17.0687 9.18791 16.7033 8.36651 16.1272C7.5451 15.551 6.87682 14.7816 6.42013 13.8862C5.96343 12.9908 5.73223 11.9967 5.74674 10.9909C5.76124 9.98501 6.02102 8.99806 6.50335 8.11632C6.98568 7.23457 7.67587 6.48489 8.51355 5.93285C9.35123 5.3808 10.3109 5.0432 11.3086 4.94958C12.3063 4.85595 13.3117 5.00916 14.2367 5.39579C15.1618 5.78241 15.9785 6.39069 16.6152 7.16742L15.6707 7.96785H15.6216C15.0852 7.32908 14.3932 6.84059 13.613 6.54992C12.8328 6.25925 11.9908 6.1763 11.1692 6.30915C10.3476 6.44199 9.57418 6.78611 8.9243 7.308C8.27443 7.8299 7.77021 8.5118 7.46072 9.28733C7.15122 10.0629 7.04699 10.9056 7.15817 11.7336C7.26935 12.5616 7.59215 13.3466 8.09516 14.0121C8.59816 14.6777 9.26425 15.2013 10.0286 15.5318C10.7929 15.8623 11.6295 15.9886 12.4568 15.8983C15.6707 15.5658 16.5539 12.3271 16.5539 12.3271H11.9416L11.9171 12.2779V11.1203C11.9171 11.108 11.9171 11.0834 11.9539 11.0834H18.0136C18.0382 11.0834 18.0504 11.0957 18.0504 11.1203V12.3025L18.0382 12.3148H16.7011C16.6643 12.3148 16.6643 12.3148 16.6888 12.3517L18.0136 13.7679L18.0382 13.8295V17.2405L18.0259 17.2528H16.8238L16.8115 17.2282V14.9008C16.8115 14.8639 16.787 14.8515 16.7624 14.8885L16.7747 14.8762Z" fill="#E1E0E3"/>
</g>
<defs>
<clipPath id="clip0_1527_9880">
<rect x="0.878906" width="22.08" height="22.1657" rx="11.04" fill="white"/>
</clipPath>
</defs>
</svg>
