<svg width="24" height="24" viewBox="0 0 24 24" fill="none" xmlns="http://www.w3.org/2000/svg">
<g clip-path="url(#clip0_1479_467)">
<path d="M0 0H24V24H0V0Z" fill="#000AD2"/>
<path d="M14.6533 16.067L14.0533 16.6937L13.48 16.067L13.1733 15.0937L12.2933 14.7737V14.1603H11.7067L11.4133 15.707L11.72 16.707L10.3733 17.3337L9.96 16.707L10.24 16.0803V15.4137H9.36L8.18667 16.707L7.30667 16.4137V15.107L5.77333 14.8537L4.66667 15.4937L4 15.187V13.867L4.6 13.5603L6.94667 12.3203L7.29333 12.627L8.17333 11.6937V11.067L9.34667 9.82699L9.93333 8.49366L10.8133 6.96033L12.2667 6.66699H12.8533V7.26699L14.0267 8.50699V9.82699L15.8667 11.667L17.64 12.907L18.52 13.2137L18.8267 14.147L20 14.747L19.4133 15.3737H18.8267V14.747L17.9467 14.4537L16.4667 12.9203L15.2933 12.2937L14.04 10.427L13.4667 9.82699L13.7467 8.82699L12.8667 7.89366L12.2667 8.50699V9.84033L11.7067 10.4403L12.88 11.667L12.28 12.307L13.48 13.5337V14.1603L14.0533 15.387H14.6667L15.32 14.7603L15.0133 14.4537L14.6533 13.5203H15.32L15.8933 14.7603L16.4933 15.387L14.6667 16.0537L14.6533 16.067Z" fill="white"/>
</g>
<defs>
<clipPath id="clip0_1479_467">
<rect width="24" height="24" rx="12" fill="white"/>
</clipPath>
</defs>
</svg>
