<svg width="24" height="24" viewBox="0 0 24 24" fill="none" xmlns="http://www.w3.org/2000/svg">
<path d="M0 12C0 5.37258 5.37258 0 12 0C18.6274 0 24 5.37258 24 12C24 18.6274 18.6274 24 12 24C5.37258 24 0 18.6274 0 12Z" fill="#F0F3FA"/>
<path d="M13.4333 11.118C14.7427 12.222 16 13.1473 16 15.0913C16 17.2113 14.792 18.6673 12.0253 18.6673C10.0627 18.6673 8.20133 17.9607 8.05067 15.2233L8 14.2087H10.7173C10.7173 15.1407 10.884 16.3273 12.024 16.3273C12.6293 16.3273 12.9307 16.018 12.9307 15.3567C12.9307 14.4727 11.824 13.678 10.7173 12.8833C9.10667 11.6473 8.2 10.5873 8.2 8.73398C8.2 6.83532 9.45867 5.33398 12.076 5.33398C14.088 5.33398 15.648 6.12865 15.7987 8.73398V9.33398H13.2827V8.95398C13.2827 8.15932 12.9813 7.58598 12.176 7.58598C11.7227 7.58598 11.2693 7.84998 11.2693 8.51265C11.22 9.48465 11.824 9.83665 13.4333 11.118Z" fill="#273F33"/>
</svg>
